<?xml version="1.0" encoding="utf-8"?>
<!-- Generator: Adobe Illustrator 16.0.0, SVG Export Plug-In . SVG Version: 6.00 Build 0)  -->
<!DOCTYPE svg PUBLIC "-//W3C//DTD SVG 1.1//EN" "http://www.w3.org/Graphics/SVG/1.1/DTD/svg11.dtd">
<svg version="1.1" id="Layer_1" xmlns="http://www.w3.org/2000/svg" xmlns:xlink="http://www.w3.org/1999/xlink" x="0px" y="0px"
	 width="11.034px" height="9.615px" viewBox="0 0 11.034 9.615" enable-background="new 0 0 11.034 9.615" xml:space="preserve">
<g>
	<polygon opacity="0.3" fill="#F6F6F6" points="9.662,5.952 10.119,5.494 10.119,4.579 9.203,4.579 6.457,8.7 7.83,8.7 	"/>
	<path fill="#F6F6F6" d="M10.119,3.663H7.115L7.354,2.47c0.012-0.06,0.018-0.12,0.018-0.181V0.915C7.371,0.41,6.962,0,6.457,0H5.999
		C5.651,0,5.334,0.196,5.18,0.506L4.301,2.264L2.977,4.028c-0.032,0.045-0.05,0.095-0.075,0.144c-0.13-0.032-0.263-0.051-0.4-0.051
		H2.044C0.917,4.121,0,5.25,0,6.639c0,1.39,0.917,2.519,2.044,2.519h1.665h0.084h0.616L5.13,9.519
		c0.128,0.062,0.269,0.097,0.411,0.097H7.83c0.306,0,0.592-0.153,0.762-0.407l1.781-2.672l0.394-0.395
		c0.172-0.172,0.268-0.404,0.268-0.647V4.579C11.034,4.073,10.626,3.663,10.119,3.663z M10.119,5.494L9.662,5.952L7.83,8.7H5.541
		L4.625,8.241H3.709V8.234H2.794v0.007h-0.75c-0.611,0-1.127-0.732-1.127-1.603c0-0.868,0.516-1.603,1.127-1.603h0.457h0.293h0.54
		h0.375V4.579l1.373-1.832l0.917-1.832h0.458v1.374l-0.458,2.29h4.12V5.494z"/>
</g>
</svg>
