<?xml version="1.0" encoding="utf-8"?>
<!-- Generator: Adobe Illustrator 16.0.0, SVG Export Plug-In . SVG Version: 6.00 Build 0)  -->
<!DOCTYPE svg PUBLIC "-//W3C//DTD SVG 1.1//EN" "http://www.w3.org/Graphics/SVG/1.1/DTD/svg11.dtd">
<svg version="1.1" id="Layer_1" xmlns="http://www.w3.org/2000/svg" xmlns:xlink="http://www.w3.org/1999/xlink" x="0px" y="0px"
	 width="12.756px" height="11.115px" viewBox="0 0 12.756 11.115" enable-background="new 0 0 12.756 11.115" xml:space="preserve">
<g>
	<polygon opacity="0.3" fill="#777777" points="11.169,6.881 11.698,6.352 11.698,5.293 10.639,5.293 7.464,10.058 9.052,10.058 	
		"/>
	<path fill="#777777" d="M11.698,4.234H8.226l0.275-1.38c0.014-0.068,0.021-0.139,0.021-0.208V1.058C8.521,0.475,8.048,0,7.464,0
		H6.935C6.533,0,6.166,0.227,5.987,0.585L4.972,2.617l-1.53,2.04C3.403,4.709,3.383,4.767,3.354,4.823
		c-0.15-0.038-0.305-0.06-0.464-0.06H2.363C1.061,4.764,0,6.069,0,7.675s1.061,2.911,2.363,2.911h1.924h0.098h0.712l0.834,0.418
		c0.147,0.072,0.31,0.111,0.475,0.111h2.646c0.354,0,0.684-0.177,0.88-0.471l2.06-3.089L12.446,7.1
		c0.198-0.198,0.31-0.468,0.31-0.748V5.293C12.756,4.709,12.283,4.234,11.698,4.234z M11.698,6.352l-0.529,0.529l-2.117,3.177H6.405
		l-1.059-0.53h-1.06V9.52H3.229v0.008H2.363c-0.707,0-1.304-0.848-1.304-1.853c0-1.004,0.597-1.853,1.304-1.853h0.527h0.339h0.625
		h0.433V5.293l1.588-2.117l1.06-2.118h0.529v1.589L6.935,5.293h4.764V6.352z"/>
</g>
</svg>
