<?xml version="1.0" encoding="utf-8"?>
<!-- Generator: Adobe Illustrator 16.0.0, SVG Export Plug-In . SVG Version: 6.00 Build 0)  -->
<!DOCTYPE svg PUBLIC "-//W3C//DTD SVG 1.1//EN" "http://www.w3.org/Graphics/SVG/1.1/DTD/svg11.dtd">
<svg version="1.1" id="Layer_1" xmlns="http://www.w3.org/2000/svg" xmlns:xlink="http://www.w3.org/1999/xlink" x="0px" y="0px"
	 width="15.95px" height="13.672px" viewBox="0 0 15.95 13.672" enable-background="new 0 0 15.95 13.672" xml:space="preserve">
<g id="fast_x5F_food_1_">
	<path fill="#777777" d="M13.173,1.122l-0.357,1.727h2.564h0.57v1.139h-0.659l-1.026,9.685H9.115L8.077,3.987H7.418V2.849h0.569
		h3.694L12.194,0h3.756v1.122H13.173z M1.994,13.672h3.987c0.939,0,1.709-0.769,1.709-1.709H0.284
		C0.284,12.903,1.054,13.672,1.994,13.672z M3.987,7.406c-2.562,0-3.703,1.014-3.703,2.267H7.69C7.69,8.42,6.552,7.406,3.987,7.406z
		 M7.69,10.266H0.284C0.128,10.266,0,10.395,0,10.551v0.558c0,0.157,0.128,0.285,0.284,0.285H7.69c0.156,0,0.284-0.128,0.284-0.285
		v-0.558C7.975,10.395,7.847,10.266,7.69,10.266z"/>
</g>
</svg>
