<?xml version="1.0" encoding="utf-8"?>
<!-- Generator: Adobe Illustrator 16.0.0, SVG Export Plug-In . SVG Version: 6.00 Build 0)  -->
<!DOCTYPE svg PUBLIC "-//W3C//DTD SVG 1.1//EN" "http://www.w3.org/Graphics/SVG/1.1/DTD/svg11.dtd">
<svg version="1.1" id="Layer_1" xmlns="http://www.w3.org/2000/svg" xmlns:xlink="http://www.w3.org/1999/xlink" x="0px" y="0px"
	 width="24.308px" height="20.835px" viewBox="0 0 24.308 20.835" enable-background="new 0 0 24.308 20.835" xml:space="preserve">
<g id="fast_x5F_food_2_">
	<path fill="#777777" d="M20.075,1.709L19.53,4.341h3.909h0.868v1.736h-1.005l-1.563,14.758h-7.849L12.31,6.077h-1.005V4.341h0.868
		h5.63L18.583,0h5.725v1.709H20.075z M3.038,20.835h6.078c1.431,0,2.604-1.171,2.604-2.604H0.434
		C0.434,19.664,1.606,20.835,3.038,20.835z M6.077,11.286c-3.906,0-5.644,1.544-5.644,3.455H11.72
		C11.72,12.83,9.984,11.286,6.077,11.286z M11.72,15.645H0.434C0.195,15.645,0,15.84,0,16.078v0.85c0,0.24,0.195,0.435,0.434,0.435
		H11.72c0.238,0,0.434-0.194,0.434-0.435v-0.85C12.153,15.84,11.958,15.645,11.72,15.645z"/>
</g>
</svg>
