<?xml version="1.0" encoding="utf-8"?>
<!-- Generator: Adobe Illustrator 16.0.0, SVG Export Plug-In . SVG Version: 6.00 Build 0)  -->
<!DOCTYPE svg PUBLIC "-//W3C//DTD SVG 1.1//EN" "http://www.w3.org/Graphics/SVG/1.1/DTD/svg11.dtd">
<svg version="1.1" id="Layer_1" xmlns="http://www.w3.org/2000/svg" xmlns:xlink="http://www.w3.org/1999/xlink" x="0px" y="0px"
	 width="9.903px" height="7.933px" viewBox="0 0 9.903 7.933" enable-background="new 0 0 9.903 7.933" xml:space="preserve">
<g id="ok_x5F_2_1_">
	<path fill="#777777" d="M9.841,1.429c0.084,0.083,0.084,0.217,0.001,0.3L3.699,7.871c-0.083,0.083-0.218,0.083-0.301,0L2.021,6.494
		C1.938,6.411,1.804,6.275,1.721,6.193L0.063,4.535c-0.084-0.082-0.084-0.217,0-0.301L1.44,2.857c0.083-0.082,0.218-0.082,0.301,0
		l1.657,1.658c0.083,0.082,0.219,0.082,0.301,0l4.453-4.453C8.235-0.021,8.37-0.021,8.454,0.061L9.841,1.429z"/>
</g>
</svg>
