<?xml version="1.0" encoding="utf-8"?>
<!-- Generator: Adobe Illustrator 16.0.0, SVG Export Plug-In . SVG Version: 6.00 Build 0)  -->
<!DOCTYPE svg PUBLIC "-//W3C//DTD SVG 1.1//EN" "http://www.w3.org/Graphics/SVG/1.1/DTD/svg11.dtd">
<svg version="1.1" id="Layer_1" xmlns="http://www.w3.org/2000/svg" xmlns:xlink="http://www.w3.org/1999/xlink" x="0px" y="0px"
	 width="18.063px" height="23.914px" viewBox="0 0 18.063 23.914" enable-background="new 0 0 18.063 23.914" xml:space="preserve">
<path fill="#777777" d="M16.729,12.58h-6.675V9.91h4.005c0.738,0,1.335-0.597,1.335-1.335c0-0.737-0.597-1.335-1.335-1.335H7.384
	c-0.737,0-1.335,0.598-1.335,1.335c0,0.738,0.598,1.335,1.335,1.335v2.67H3.826L3.342,7.842c0.733-0.075,1.267-0.729,1.192-1.465
	L3.99,1.066C3.916,0.332,1.934-0.065,1.199,0.009c-0.733,0.076-1.267,0.73-1.192,1.464l0.067,0.664v0.001l1.15,11.243
	c-0.312,0.621-0.516,1.441-0.516,1.869c0,0.738,0.598,1.335,1.335,1.335h0.599c0.085,0.008,0.166,0.034,0.253,0.024
	c0.028-0.002,0.051-0.02,0.079-0.024h4.409v2.67h-5.34c-0.737,0-1.335,0.597-1.335,1.335c0,0.737,0.598,1.335,1.335,1.335H1.873
	c0.008,1.099,0.9,1.989,2.002,1.989s1.993-0.891,2.001-1.989h5.342c0.008,1.099,0.899,1.989,2.001,1.989s1.994-0.891,2.002-1.989
	h0.173c0.738,0,1.335-0.598,1.335-1.335c0-0.738-0.597-1.335-1.335-1.335h-5.34v-2.67h6.675c0.738,0,1.335-1.932,1.335-2.67
	S17.467,12.58,16.729,12.58z"/>
</svg>
