<?xml version="1.0" encoding="utf-8"?>
<!-- Generator: Adobe Illustrator 16.0.0, SVG Export Plug-In . SVG Version: 6.00 Build 0)  -->
<!DOCTYPE svg PUBLIC "-//W3C//DTD SVG 1.1//EN" "http://www.w3.org/Graphics/SVG/1.1/DTD/svg11.dtd">
<svg version="1.1" id="Layer_1" xmlns="http://www.w3.org/2000/svg" xmlns:xlink="http://www.w3.org/1999/xlink" x="0px" y="0px"
	 width="11.854px" height="15.691px" viewBox="0 0 11.854 15.691" enable-background="new 0 0 11.854 15.691" xml:space="preserve">
<path fill="#777777" d="M10.978,8.254h-4.38V6.503h2.628c0.483,0,0.876-0.393,0.876-0.876c0-0.484-0.393-0.876-0.876-0.876H4.845
	c-0.483,0-0.876,0.392-0.876,0.876c0,0.483,0.393,0.876,0.876,0.876v1.751H2.511L2.193,5.145c0.48-0.049,0.831-0.479,0.782-0.961
	L2.618,0.699C2.569,0.217,1.27-0.043,0.787,0.006c-0.481,0.05-0.831,0.479-0.782,0.96l0.044,0.436v0.001L0.804,8.78
	c-0.205,0.407-0.339,0.945-0.339,1.226c0,0.485,0.393,0.876,0.876,0.876h0.393c0.057,0.006,0.109,0.022,0.166,0.017
	c0.02-0.001,0.034-0.013,0.053-0.017h2.893v1.752H1.341c-0.483,0-0.876,0.392-0.876,0.877c0,0.483,0.393,0.876,0.876,0.876H1.229
	c0.005,0.721,0.59,1.305,1.312,1.305c0.724,0,1.309-0.584,1.314-1.305h3.505c0.005,0.721,0.59,1.305,1.312,1.305
	s1.309-0.584,1.313-1.305h0.114c0.483,0,0.876-0.393,0.876-0.876c0-0.485-0.393-0.877-0.876-0.877H6.598v-1.752h4.38
	c0.483,0,0.876-1.267,0.876-1.752C11.854,8.646,11.461,8.254,10.978,8.254z"/>
</svg>
