<?xml version="1.0" encoding="utf-8"?>
<!-- Generator: Adobe Illustrator 16.0.0, SVG Export Plug-In . SVG Version: 6.00 Build 0)  -->
<!DOCTYPE svg PUBLIC "-//W3C//DTD SVG 1.1//EN" "http://www.w3.org/Graphics/SVG/1.1/DTD/svg11.dtd">
<svg version="1.1" id="Layer_1" xmlns="http://www.w3.org/2000/svg" xmlns:xlink="http://www.w3.org/1999/xlink" x="0px" y="0px"
	 width="23.833px" height="20.428px" viewBox="0 0 23.833 20.428" enable-background="new 0 0 23.833 20.428" xml:space="preserve">
<g id="display">
	<g opacity="0.3">
		<rect x="1.702" y="1.702" fill="#777777" width="20.428" height="11.917"/>
	</g>
	<path fill="#777777" d="M22.981,0H0.852C0.384,0,0,0.383,0,0.852V15.32c0,0.469,0.384,0.852,0.852,0.852h9.362
		c0,0.16,0,0.426,0,0.851c0,1.703-1.662,1.703-1.662,1.703H5.409c-0.166,0-0.303,0.136-0.303,0.301v1.401h13.619v-1.401
		c0-0.165-0.137-0.301-0.302-0.301h-3.103c0,0-1.702,0-1.702-1.703c0-0.425,0-0.69,0-0.851h9.362c0.468,0,0.852-0.383,0.852-0.852
		V0.852C23.833,0.383,23.449,0,22.981,0z M22.13,15.32h-0.851V14.47h0.851V15.32z M22.13,13.619H1.702V1.702H22.13V13.619z"/>
</g>
</svg>
