<?xml version="1.0" encoding="utf-8"?>
<!-- Generator: Adobe Illustrator 16.0.0, SVG Export Plug-In . SVG Version: 6.00 Build 0)  -->
<!DOCTYPE svg PUBLIC "-//W3C//DTD SVG 1.1//EN" "http://www.w3.org/Graphics/SVG/1.1/DTD/svg11.dtd">
<svg version="1.1" id="Layer_1" xmlns="http://www.w3.org/2000/svg" xmlns:xlink="http://www.w3.org/1999/xlink" x="0px" y="0px"
	 width="15.638px" height="13.403px" viewBox="0 0 15.638 13.403" enable-background="new 0 0 15.638 13.403" xml:space="preserve">
<g id="display_1_">
	<g opacity="0.3">
		<rect x="1.117" y="1.116" fill="#777777" width="13.403" height="7.819"/>
	</g>
	<path fill="#777777" d="M15.079,0H0.559C0.251,0,0,0.25,0,0.558v9.494c0,0.309,0.251,0.559,0.559,0.559h6.144
		c0,0.105,0,0.28,0,0.559c0,1.117-1.091,1.117-1.091,1.117H3.549c-0.108,0-0.198,0.089-0.198,0.197v0.92h8.937v-0.92
		c0-0.108-0.09-0.197-0.198-0.197h-2.036c0,0-1.117,0-1.117-1.117c0-0.278,0-0.453,0-0.559h6.144c0.308,0,0.559-0.25,0.559-0.559
		V0.558C15.638,0.25,15.387,0,15.079,0z M14.521,10.052h-0.559V9.494h0.559V10.052z M14.521,8.936H1.117V1.116h13.403V8.936z"/>
</g>
</svg>
