<?xml version="1.0" encoding="utf-8"?>
<!-- Generator: Adobe Illustrator 16.0.0, SVG Export Plug-In . SVG Version: 6.00 Build 0)  -->
<!DOCTYPE svg PUBLIC "-//W3C//DTD SVG 1.1//EN" "http://www.w3.org/Graphics/SVG/1.1/DTD/svg11.dtd">
<svg version="1.1" id="Layer_1" xmlns="http://www.w3.org/2000/svg" xmlns:xlink="http://www.w3.org/1999/xlink" x="0px" y="0px"
	 width="11.034px" height="9.615px" viewBox="0 0 11.034 9.615" enable-background="new 0 0 11.034 9.615" xml:space="preserve">
<g>
	<polygon opacity="0.3" fill="#777777" points="9.662,3.663 10.119,4.121 10.119,5.036 9.203,5.036 6.457,0.915 7.83,0.915 	"/>
	<path fill="#777777" d="M11.034,5.036V4.121c0-0.243-0.096-0.476-0.268-0.647l-0.394-0.395L8.592,0.407C8.422,0.153,8.136,0,7.83,0
		H5.541C5.398,0,5.258,0.034,5.13,0.097L4.409,0.458H3.793H3.709H2.044C0.917,0.458,0,1.587,0,2.977
		c0,1.389,0.917,2.518,2.044,2.518h0.457c0.138,0,0.271-0.019,0.4-0.051c0.025,0.049,0.043,0.099,0.075,0.144l1.324,1.765
		L5.18,9.109c0.154,0.31,0.472,0.506,0.819,0.506h0.458c0.505,0,0.914-0.41,0.914-0.915V7.326c0-0.061-0.006-0.121-0.018-0.181
		L7.115,5.952h3.004C10.626,5.952,11.034,5.542,11.034,5.036z M10.119,5.036h-4.12l0.458,2.29V8.7H5.999L5.082,6.868L3.709,5.036
		V4.579H3.334h-0.54H2.501H2.044c-0.611,0-1.127-0.734-1.127-1.603c0-0.87,0.516-1.603,1.127-1.603h0.75v0.007h0.915V1.374h0.916
		l0.916-0.459H7.83l1.832,2.748l0.457,0.458V5.036z"/>
</g>
</svg>
