<?xml version="1.0" encoding="utf-8"?>
<!-- Generator: Adobe Illustrator 16.0.0, SVG Export Plug-In . SVG Version: 6.00 Build 0)  -->
<!DOCTYPE svg PUBLIC "-//W3C//DTD SVG 1.1//EN" "http://www.w3.org/Graphics/SVG/1.1/DTD/svg11.dtd">
<svg version="1.1" id="Layer_1" xmlns="http://www.w3.org/2000/svg" xmlns:xlink="http://www.w3.org/1999/xlink" x="0px" y="0px"
	 width="12.756px" height="11.115px" viewBox="0 0 12.756 11.115" enable-background="new 0 0 12.756 11.115" xml:space="preserve">
<g>
	<polygon opacity="0.3" fill="#777777" points="11.169,4.234 11.698,4.764 11.698,5.822 10.639,5.822 7.464,1.058 9.052,1.058 	"/>
	<path fill="#777777" d="M12.756,5.822V4.764c0-0.28-0.111-0.55-0.31-0.748L11.991,3.56l-2.06-3.089C9.735,0.177,9.405,0,9.052,0
		H6.405C6.24,0,6.078,0.039,5.931,0.111L5.097,0.529H4.385H4.287H2.363C1.061,0.529,0,1.835,0,3.44s1.061,2.911,2.363,2.911h0.527
		c0.159,0,0.313-0.021,0.464-0.06c0.028,0.057,0.049,0.114,0.087,0.166l1.53,2.04l1.016,2.032c0.179,0.358,0.546,0.585,0.947,0.585
		h0.529c0.584,0,1.058-0.475,1.058-1.058V8.469c0-0.069-0.007-0.14-0.021-0.208l-0.275-1.38h3.473
		C12.283,6.881,12.756,6.406,12.756,5.822z M11.698,5.822H6.935l0.529,2.646v1.589H6.935l-1.06-2.118L4.287,5.822V5.293H3.854H3.229
		H2.891H2.363c-0.707,0-1.304-0.849-1.304-1.853c0-1.005,0.597-1.853,1.304-1.853h0.866v0.008h1.058V1.588h1.06l1.059-0.53h2.646
		l2.117,3.177l0.529,0.529V5.822z"/>
</g>
</svg>
