<?xml version="1.0" encoding="utf-8"?>
<!-- Generator: Adobe Illustrator 16.0.0, SVG Export Plug-In . SVG Version: 6.00 Build 0)  -->
<!DOCTYPE svg PUBLIC "-//W3C//DTD SVG 1.1//EN" "http://www.w3.org/Graphics/SVG/1.1/DTD/svg11.dtd">
<svg version="1.1" id="Layer_1" xmlns="http://www.w3.org/2000/svg" xmlns:xlink="http://www.w3.org/1999/xlink" x="0px" y="0px"
	 width="19.788px" height="19.788px" viewBox="0 0 19.788 19.788" enable-background="new 0 0 19.788 19.788" xml:space="preserve">
<g id="download_x5F_alt_1_">
	<path fill="#777777" d="M19.344,15.665h-0.38h-1.237H2.029H1.648H0.413C0.186,15.665,0,15.851,0,16.078v2.094v1.203v0.413h0.413
		h1.648h15.665h1.648h0.413v-0.413v-1.203v-2.094C19.788,15.851,19.57,15.665,19.344,15.665z M18.14,18.14h-1.65v-0.824h1.65V18.14z
		"/>
	<path fill="#777777" d="M3.409,8.608C3.278,8.44,3.347,8.292,3.561,8.292H7.42V0.404C7.42,0.189,7.637,0,7.851,0h4.142
		c0.214,0,0.367,0.189,0.367,0.404v7.888h3.934c0.215,0,0.281,0.146,0.15,0.316l-6.279,7.291c-0.13,0.171-0.344,0.169-0.475,0
		L3.409,8.608z"/>
</g>
</svg>
