<?xml version="1.0" encoding="utf-8"?>
<!-- Generator: Adobe Illustrator 16.0.0, SVG Export Plug-In . SVG Version: 6.00 Build 0)  -->
<!DOCTYPE svg PUBLIC "-//W3C//DTD SVG 1.1//EN" "http://www.w3.org/Graphics/SVG/1.1/DTD/svg11.dtd">
<svg version="1.1" id="Layer_1" xmlns="http://www.w3.org/2000/svg" xmlns:xlink="http://www.w3.org/1999/xlink" x="0px" y="0px"
	 width="12.984px" height="12.984px" viewBox="0 0 12.984 12.984" enable-background="new 0 0 12.984 12.984" xml:space="preserve">
<g id="download_x5F_alt_2_">
	<path fill="#777777" d="M12.692,10.279h-0.249h-0.812h-10.3H1.082H0.271C0.122,10.279,0,10.401,0,10.551v1.374v0.789v0.271h0.271
		h1.082h10.278h1.082h0.271v-0.271v-0.789v-1.374C12.984,10.401,12.842,10.279,12.692,10.279z M11.903,11.903h-1.084v-0.541h1.084
		V11.903z"/>
	<path fill="#777777" d="M2.236,5.648c-0.086-0.109-0.041-0.207,0.1-0.207h2.532V0.266C4.868,0.125,5.011,0,5.151,0h2.718
		C8.009,0,8.11,0.125,8.11,0.266v5.176h2.581c0.141,0,0.185,0.096,0.099,0.207l-4.121,4.784c-0.085,0.112-0.225,0.111-0.312,0
		L2.236,5.648z"/>
</g>
</svg>
